# xmcd CD database file
#
# Track frame offsets:
#	150
#	15724
#	28946
#	44650
#	62089
#	77666
#	94267
#	111781
#	125442
#	145949
#	158532
#	175457
#
# Disc length: 2616 seconds
#
# Revision: 0
# Processed by: cddbd v1.5.2PL0 Copyright (c) Steve Scherf et al.
# Submitted via: cdripper 1,0,33,916
#
DISCID=a10a360c
DTITLE=Two Dollar Pistols - Here Tomorrow Gone Today
DYEAR=2007
DGENRE=Country
TTITLE0=When It Was Over
TTITLE1=Stranger Things Have Happened
TTITLE2=Anyone Else But Me
TTITLE3=Tortured Mind
TTITLE4=Here Tomorrow Gone Today
TTITLE5=You Cleared Every Hurdle
TTITLE6=I Still Need Her
TTITLE7=I Don't Know You But I Don't Like You
TTITLE8=Before I Was Knowing It
TTITLE9=Were You Pushed or Did You Fall
TTITLE10=She Lies All The Time
TTITLE11=Nothing Left of Me At All
EXTD=YEAR: 2007
EXTT0=
EXTT1=
EXTT2=
EXTT3=
EXTT4=
EXTT5=
EXTT6=
EXTT7=
EXTT8=
EXTT9=
EXTT10=
EXTT11=
PLAYORDER=
